<svg width="71" height="74" viewBox="0 0 71 74" fill="none" xmlns="http://www.w3.org/2000/svg">
<path d="M11.6849 24.3967C13.2982 24.3967 14.6061 23.0314 14.6061 21.3471C14.6061 19.6629 13.2982 18.2975 11.6849 18.2975C10.0715 18.2975 8.76367 19.6629 8.76367 21.3471C8.76367 23.0314 10.0715 24.3967 11.6849 24.3967Z" fill="white"/>
<path d="M11.6849 39.6447C13.2982 39.6447 14.6061 38.2794 14.6061 36.5951C14.6061 34.9109 13.2982 33.5455 11.6849 33.5455C10.0715 33.5455 8.76367 34.9109 8.76367 36.5951C8.76367 38.2794 10.0715 39.6447 11.6849 39.6447Z" fill="white"/>
<path d="M11.6849 54.8927C13.2982 54.8927 14.6061 53.5274 14.6061 51.8431C14.6061 50.1589 13.2982 48.7935 11.6849 48.7935C10.0715 48.7935 8.76367 50.1589 8.76367 51.8431C8.76367 53.5274 10.0715 54.8927 11.6849 54.8927Z" fill="white"/>
<path d="M58.5997 33.5455H23.1944C21.6779 33.5455 20.4485 34.829 20.4485 36.4122V36.7781C20.4485 38.3613 21.6779 39.6447 23.1944 39.6447H58.5997C60.1162 39.6447 61.3456 38.3613 61.3456 36.7781V36.4122C61.3456 34.829 60.1162 33.5455 58.5997 33.5455Z" fill="white"/>
<path d="M58.5997 48.7935H23.1944C21.6779 48.7935 20.4485 50.0769 20.4485 51.6601V52.0261C20.4485 53.6093 21.6779 54.8927 23.1944 54.8927H58.5997C60.1162 54.8927 61.3456 53.6093 61.3456 52.0261V51.6601C61.3456 50.0769 60.1162 48.7935 58.5997 48.7935Z" fill="white"/>
<path d="M58.5997 18.2975H23.1944C21.6779 18.2975 20.4485 19.581 20.4485 21.1642V21.5301C20.4485 23.1133 21.6779 24.3967 23.1944 24.3967H58.5997C60.1162 24.3967 61.3456 23.1133 61.3456 21.5301V21.1642C61.3456 19.581 60.1162 18.2975 58.5997 18.2975Z" fill="white"/>
</svg>
