<svg width="81" height="74" viewBox="0 0 81 74" fill="none" xmlns="http://www.w3.org/2000/svg">
<path d="M13.3628 24.3967C15.2078 24.3967 16.7035 23.0313 16.7035 21.3471C16.7035 19.6628 15.2078 18.2975 13.3628 18.2975C11.5178 18.2975 10.0221 19.6628 10.0221 21.3471C10.0221 23.0313 11.5178 24.3967 13.3628 24.3967Z" fill="white"/>
<path d="M13.3628 39.6446C15.2078 39.6446 16.7035 38.2793 16.7035 36.5951C16.7035 34.9108 15.2078 33.5455 13.3628 33.5455C11.5178 33.5455 10.0221 34.9108 10.0221 36.5951C10.0221 38.2793 11.5178 39.6446 13.3628 39.6446Z" fill="white"/>
<path d="M13.3628 54.8925C15.2078 54.8925 16.7035 53.5272 16.7035 51.8429C16.7035 50.1587 15.2078 48.7933 13.3628 48.7933C11.5178 48.7933 10.0221 50.1587 10.0221 51.8429C10.0221 53.5272 11.5178 54.8925 13.3628 54.8925Z" fill="white"/>
<path d="M67.0143 33.5455H26.5251C24.7908 33.5455 23.3848 34.8289 23.3848 36.4121V36.778C23.3848 38.3612 24.7908 39.6446 26.5251 39.6446H67.0143C68.7486 39.6446 70.1545 38.3612 70.1545 36.778V36.4121C70.1545 34.8289 68.7486 33.5455 67.0143 33.5455Z" fill="white"/>
<path d="M67.0143 48.7933H26.5251C24.7908 48.7933 23.3848 50.0768 23.3848 51.6599V52.0259C23.3848 53.6091 24.7908 54.8925 26.5251 54.8925H67.0143C68.7486 54.8925 70.1545 53.6091 70.1545 52.0259V51.6599C70.1545 50.0768 68.7486 48.7933 67.0143 48.7933Z" fill="white"/>
<path d="M67.0143 18.2975H26.5251C24.7908 18.2975 23.3848 19.5809 23.3848 21.1641V21.53C23.3848 23.1132 24.7908 24.3967 26.5251 24.3967H67.0143C68.7486 24.3967 70.1545 23.1132 70.1545 21.53V21.1641C70.1545 19.5809 68.7486 18.2975 67.0143 18.2975Z" fill="white"/>
</svg>
