<svg width="61" height="50" viewBox="0 0 61 50" fill="none" xmlns="http://www.w3.org/2000/svg">
<path d="M42.4687 9.12247C41.7646 9.12247 41.1978 9.58705 41.1978 10.1641V39.8354C41.1978 40.4125 41.7646 40.877 42.4687 40.877H50.8532C51.5572 40.877 52.124 40.4124 52.124 39.8354V10.1641C52.124 9.58697 51.5572 9.12247 50.8532 9.12247H42.4687ZM32.7289 16.3572C32.0249 16.3572 31.4581 16.8217 31.4581 17.3988V39.8354C31.4581 40.4125 32.0249 40.877 32.7289 40.877H39.5001C40.2041 40.877 40.7709 40.4124 40.7709 39.8354V17.3988C40.7709 16.8217 40.2041 16.3572 39.5001 16.3572H32.7289ZM21.3957 23.3966C20.6916 23.3966 20.1248 23.8611 20.1248 24.4382V39.8354C20.1248 40.4125 20.6916 40.877 21.3957 40.877H29.7802C30.4842 40.877 31.051 40.4124 31.051 39.8354V24.4382C31.051 23.8611 30.4842 23.3966 29.7802 23.3966H21.3957ZM10.1468 30.8306C9.44277 30.8306 8.87598 31.2951 8.87598 31.8723V39.8354C8.87598 40.4125 9.44277 40.877 10.1468 40.877H18.5313C19.2354 40.877 19.8022 40.4124 19.8022 39.8354V31.8723C19.8022 31.2951 19.2354 30.8306 18.5313 30.8306H10.1468Z" fill="#2A384C"/>
</svg>
