<svg width="58" height="56" viewBox="0 0 58 56" fill="none" xmlns="http://www.w3.org/2000/svg">
<path d="M40.38 10.2172C39.7106 10.2172 39.1717 10.7375 39.1717 11.3838V44.6156C39.1717 45.262 39.7106 45.7823 40.38 45.7823H48.3522C49.0216 45.7823 49.5605 45.2619 49.5605 44.6156V11.3838C49.5605 10.7374 49.0216 10.2172 48.3522 10.2172H40.38ZM31.1193 18.32C30.4499 18.32 29.911 18.8404 29.911 19.4867V44.6156C29.911 45.262 30.4499 45.7823 31.1193 45.7823H37.5575C38.2269 45.7823 38.7658 45.2619 38.7658 44.6156V19.4867C38.7658 18.8403 38.2269 18.32 37.5575 18.32H31.1193ZM20.3434 26.2041C19.674 26.2041 19.1351 26.7244 19.1351 27.3708V44.6156C19.1351 45.262 19.674 45.7823 20.3434 45.7823H28.3156C28.985 45.7823 29.5239 45.2619 29.5239 44.6156V27.3708C29.5239 26.7244 28.985 26.2041 28.3156 26.2041H20.3434ZM9.64779 34.5303C8.97837 34.5303 8.43945 35.0506 8.43945 35.697V44.6156C8.43945 45.262 8.97837 45.7823 9.64779 45.7823H17.62C18.2894 45.7823 18.8283 45.2619 18.8283 44.6156V35.697C18.8283 35.0506 18.2894 34.5303 17.62 34.5303H9.64779Z" fill="white"/>
</svg>
