<svg width="34" height="44" viewBox="0 0 34 44" fill="none" xmlns="http://www.w3.org/2000/svg">
<path d="M16.6075 0C9.13345 0 3.0793 4.77801 3.0793 10.6002C3.0793 14.6498 6.03939 18.154 10.3377 19.9371C9.40175 20.1531 8.50383 20.4008 7.69089 20.7296C5.36263 21.6714 3.5977 23.1352 2.41603 25.0523C0.0527023 28.8866 -0.249016 34.4461 0.144652 42.8233L0.19471 44H1.73399H32.5947L32.6886 42.8761C33.5036 34.9344 33.0254 29.3203 30.4422 25.3933C28.7316 22.7928 26.0106 21.0798 22.4705 20.11C27.0011 18.3872 30.1606 14.7788 30.1606 10.6002C30.1606 4.77801 24.0815 0 16.6075 0ZM16.6075 2.46873C22.3106 2.46873 26.9444 6.07735 26.9444 10.6002C26.9444 15.1229 22.3106 18.7316 16.6075 18.7316C10.9043 18.7316 6.29552 15.1229 6.29552 10.6002C6.29552 6.07735 10.9043 2.46873 16.6075 2.46873ZM16.6075 3.0691C11.2715 3.0691 6.95879 6.42283 6.95879 10.629C6.95879 10.7033 6.98753 10.7687 6.99007 10.8403C9.21055 9.85427 11.1603 8.61376 12.728 7.08438C16.898 9.62052 21.3691 11.3902 26.2374 10.9268C26.2424 10.8245 26.2749 10.7312 26.2749 10.629C26.2749 6.42283 21.9434 3.0691 16.6075 3.0691ZM13.2285 14.1303C13.1804 14.1319 13.1324 14.1351 13.0846 14.1399C12.7391 14.1766 12.4185 14.2988 12.1717 14.488C11.9249 14.6772 11.7653 14.9231 11.7171 15.1884C11.669 15.4536 11.7349 15.7236 11.9049 15.9574C12.075 16.1912 12.3398 16.376 12.6591 16.4838C15.2729 17.4186 18.0178 17.2684 20.4869 16.5174C20.6883 16.4611 20.8729 16.3743 21.0299 16.2622C21.1868 16.1502 21.3129 16.0151 21.4006 15.865C21.4883 15.7148 21.5359 15.5527 21.5406 15.3883C21.5453 15.2238 21.507 15.0602 21.4279 14.9073C21.3488 14.7544 21.2305 14.6152 21.0801 14.498C20.9297 14.3808 20.7502 14.2879 20.5522 14.2249C20.3542 14.1618 20.1418 14.1299 19.9274 14.131C19.7131 14.1321 19.5012 14.1662 19.3043 14.2312C17.3971 14.8121 15.767 14.8806 14.0044 14.2504C13.763 14.1612 13.4962 14.1199 13.2285 14.1303ZM11.8082 20.4799C13.3036 20.9283 14.9116 21.2003 16.6075 21.2003C18.186 21.2003 19.6778 20.9479 21.0876 20.5567L21.2503 20.9986C21.7217 22.261 21.666 23.783 20.4619 25.0139C21.2256 28.6151 21.9777 32.2175 22.7396 35.8205C22.8116 36.1263 22.7214 36.4439 22.4893 36.6995C20.849 38.4587 20.0445 39.3947 19.3168 40.0472C18.953 40.3734 18.5631 40.6567 18.0341 40.8445C17.5051 41.0406 16.9748 41.0702 16.5511 41.0702C16.0481 41.0702 15.4571 41.0096 14.9117 40.7772C14.3664 40.5449 14.0091 40.2074 13.6978 39.8598C13.0753 39.1652 12.4688 38.2583 11.1699 36.6322C10.9867 36.399 10.9175 36.1237 10.9697 35.8542C11.6235 32.2226 12.2696 28.5888 12.9219 24.9562C11.6596 23.7372 11.6371 22.2583 11.7393 21.1379L11.8082 20.4799ZM13.1535 21.2627L13.0721 22.2377C12.9966 23.2272 13.0149 24.5329 13.9481 25.6094C13.4659 28.8174 12.986 32.0275 12.5027 35.2346C12.4641 35.4725 12.5174 35.716 12.6529 35.9214C13.6131 37.3574 14.0636 38.1609 14.5238 38.7744C14.7539 39.0811 15.0154 39.3759 15.4186 39.5813C15.8218 39.7867 16.2606 39.8406 16.6325 39.8406C16.9457 39.8406 17.3364 39.809 17.7275 39.6389C18.1186 39.4735 18.4096 39.2258 18.6786 38.9377C19.2165 38.3614 19.8062 37.5326 21.0188 35.979C21.1904 35.7532 21.2598 35.4762 21.2065 35.2058C20.6433 32.0239 20.0879 28.8378 19.5233 25.6575C20.4135 24.5705 20.4537 23.2325 20.1053 22.1177L19.88 21.3828L13.1535 21.2627Z" fill="#2A384C"/>
</svg>
